Coordinates
version=1
nRows=33
nColumns=30
inDegrees=yes

Units are S.I. units (second, meters, Newtons, ...)
Angles are in degrees.

endheader
time	floatyaw	floatroll	floatpitch	floatx	floaty	floatz	pro_sup_l	deviation_l	flexion_l	cmc_flexion_l	cmc_abduction_l	mp_flexion_l	ip_flexion_l	2mcp_flexion_l	2mcp_abduction_l	2pm_flexion_l	2md_flexion_l	3mcp_flexion_l	3mcp_abduction_l	3pm_flexion_l	3md_flexion_l	4mcp_flexion_l	4mcp_abduction_l	4pm_flexion_l	4md_flexion_l	5mcp_flexion_l	5mcp_abduction_l	5pm_flexion_l	5md_flexion_l
-0.495000	-0.883807	-4.225655	94.239928	-0.004188	-0.264195	0.005679	88.953020	-0.496114	-1.212206	21.779835	6.214895	-17.257138	-27.456358	23.018847	5.672396	29.977738	20.278683	10.627781	4.396715	35.135505	22.476072	0.743100	-3.271552	51.803934	33.314239	-16.892461	-9.971843	59.526858	47.048041
-0.485000	-0.883807	-4.225655	94.239928	-0.002852	-0.262761	0.007373	88.462905	-0.290051	-0.940479	20.685288	7.122451	-16.987065	-26.507765	23.995391	5.684342	29.249112	20.182496	11.027619	4.525438	35.138778	22.725024	1.233988	-3.293956	51.972889	33.338141	-15.024833	-10.028630	58.099545	46.368460
-0.475000	-0.883807	-4.225655	94.239928	-0.001208	-0.261079	0.009612	87.862114	-0.033803	-0.690714	19.429970	8.266021	-16.746827	-25.551594	25.076702	5.715303	28.463987	20.088191	11.642869	4.685755	35.002562	22.955925	1.926028	-3.347553	52.091296	33.325371	-12.568818	-10.014855	56.240462	45.528161
-0.465000	-0.883807	-4.225655	94.239928	0.000754	-0.259149	0.012454	87.181180	0.279229	-0.480647	18.007530	9.624368	-16.546995	-24.581242	26.335064	5.762168	27.587867	19.933420	12.586764	4.865980	34.603170	23.138782	2.920061	-3.430118	52.007615	33.279718	-9.647368	-9.890736	54.173004	44.546108
-0.455000	-0.883807	-4.225655	94.239928	0.003036	-0.256982	0.015865	86.466180	0.663667	-0.321129	16.429671	11.128018	-16.375507	-23.573757	27.836814	5.823841	26.590922	19.652197	13.932969	5.050938	33.865935	23.257463	4.273527	-3.533710	51.613688	33.237761	-6.459605	-9.632033	52.155014	43.491252
-0.445000	-0.883807	-4.225655	94.239928	0.005639	-0.254614	0.019738	85.776117	1.141539	-0.217594	14.740477	12.671546	-16.205409	-22.513010	29.596631	5.904333	25.478147	19.208773	15.686324	5.228462	32.796383	23.308389	5.954354	-3.648113	50.903415	33.272756	-3.236928	-9.242547	50.418617	42.490797
-0.435000	-0.883807	-4.225655	94.239928	0.008560	-0.252104	0.023934	85.176879	1.736835	-0.170030	13.015834	14.141655	-16.010573	-21.412065	31.557454	6.012726	24.304780	18.617447	17.776844	5.394413	31.482750	23.295873	7.833677	-3.764328	49.988413	33.484630	-0.199129	-8.757699	49.132723	41.717539
-0.425000	-0.883807	-4.225655	94.239928	0.011801	-0.249514	0.028345	84.729653	2.467407	-0.170565	11.341903	15.452315	-15.778661	-20.316688	33.606058	6.160222	23.166570	17.937928	20.079884	5.552747	30.070644	23.229113	9.725482	-3.876156	49.062160	33.977773	2.486282	-8.236629	48.395348	41.351691
-0.415000	-0.883807	-4.225655	94.239928	0.015381	-0.246889	0.032922	84.475949	3.337544	-0.201086	9.782340	16.571892	-15.513796	-19.285117	35.613972	6.355348	22.167410	17.249762	22.453784	5.710733	28.718719	23.122105	11.452253	-3.979098	48.331704	34.833404	4.736432	-7.746152	48.242537	41.526373
-0.405000	-0.883807	-4.225655	94.239928	0.019326	-0.244260	0.037676	84.426763	4.334462	-0.234988	8.356094	17.528460	-15.230624	-18.359698	37.480256	6.599246	21.381370	16.621586	24.777064	5.873064	27.552611	22.995136	12.900684	-4.068038	47.952560	36.084733	6.563101	-7.344511	48.658576	42.277835
-0.395000	-0.883807	-4.225655	94.239928	0.023658	-0.241658	0.042647	84.563451	5.430200	-0.244516	7.041857	18.390812	-14.946981	-17.552525	39.154321	6.883502	20.830276	16.092645	26.968038	6.039059	26.636700	22.876307	14.040646	-4.136388	47.995310	37.701941	8.050034	-7.072022	49.584644	43.523089
-0.385000	-0.883807	-4.225655	94.239928	0.028370	-0.239140	0.047871	84.850459	6.587600	-0.209468	5.804388	19.236866	-14.679596	-16.852305	40.631959	7.192281	20.486560	15.673377	28.982134	6.204216	25.972782	22.801602	14.906569	-4.178432	48.447498	39.591861	9.306320	-6.950022	50.930705	45.077777
-0.375000	-0.883807	-4.225655	94.239928	0.033420	-0.236791	0.053348	85.251929	7.767376	-0.120322	4.621444	20.126349	-14.441390	-16.240410	41.933992	7.508209	20.294559	15.358074	30.796987	6.363967	25.518555	22.811027	15.562415	-4.193491	49.234419	41.614392	10.421313	-6.983964	52.590345	46.709636
-0.365000	-0.883807	-4.225655	94.239928	0.038750	-0.234703	0.059039	85.743205	8.933835	0.026842	3.492820	21.087622	-14.237700	-15.700222	43.083621	7.818800	20.195402	15.136770	32.400622	6.516406	25.211102	22.938693	16.073740	-4.188287	50.242272	43.613621	11.443729	-7.165398	54.451399	48.205958
-0.355000	-0.883807	-4.225655	94.239928	0.044298	-0.232939	0.064878	86.314029	10.058441	0.238629	2.430202	22.118120	-14.062485	-15.215667	44.094293	8.119637	20.143778	14.998577	33.790249	6.662356	24.985500	23.199146	16.496191	-4.175166	51.338665	45.455853	12.387737	-7.470905	56.398164	49.428195
-0.345000	-0.883807	-4.225655	94.239928	0.050025	-0.231512	0.070798	86.965528	11.121091	0.528319	1.441157	23.193367	-13.898564	-14.766940	44.970279	8.412859	20.113210	14.928473	34.976829	6.803530	24.787628	23.577975	16.875562	-4.167908	52.392800	47.060627	13.250636	-7.860793	58.311514	50.336097
-0.335000	-0.883807	-4.225655	94.239928	0.055907	-0.230397	0.076749	87.704350	12.109235	0.912768	0.521588	24.280165	-13.724152	-14.332337	45.713667	8.702681	20.093735	14.905520	35.985285	6.940785	24.583524	24.034977	17.250120	-4.178819	53.296608	48.410754	14.025290	-8.282468	60.078170	50.978762
-0.325000	-0.883807	-4.225655	94.239928	0.061923	-0.229566	0.082694	88.536878	13.016108	1.405719	-0.339047	25.350335	-13.522835	-13.896698	46.329185	8.991176	20.087989	14.908230	36.846022	7.073723	24.364739	24.520772	17.649489	-4.218217	53.984069	49.537649	14.702715	-8.680999	61.611985	51.461284
-0.315000	-0.883807	-4.225655	94.239928	0.068046	-0.229012	0.088604	89.466078	13.840227	2.013006	-1.146459	26.390917	-13.290643	-13.459139	46.823373	9.276490	20.108182	14.924960	37.583345	7.201348	24.146351	24.998390	18.090138	-4.293967	54.442893	50.492345	15.271506	-9.013927	62.875958	51.900965
-0.305000	-0.883807	-4.225655	94.239928	0.074242	-0.228761	0.094452	90.492131	14.586850	2.732619	-1.894284	27.407426	-13.035456	-13.032868	47.201474	9.553616	20.171953	14.960926	38.209791	7.322625	23.956448	25.457411	18.571413	-4.408946	54.712425	51.319125	15.721197	-9.263249	63.888872	52.387756
-0.295000	-0.883807	-4.225655	94.239928	0.080477	-0.228847	0.100210	91.615090	15.269300	3.558553	-2.565809	28.419027	-12.769621	-12.636963	47.466776	9.816368	20.295082	15.035051	38.729376	7.436470	23.821477	25.912709	19.075518	-4.557573	54.866213	52.043712	16.049586	-9.438458	64.710029	52.959857
-0.285000	-0.883807	-4.225655	94.239928	0.086723	-0.229291	0.105857	92.835549	15.906922	4.484877	-3.142006	29.447469	-12.501519	-12.286322	47.622954	10.059146	20.483502	15.168098	39.144515	7.541651	23.755287	26.389771	19.571508	-4.724654	54.985616	52.676573	16.269022	-9.569691	65.410043	53.598629
-0.275000	-0.883807	-4.225655	94.239928	0.092947	-0.230079	0.111374	94.150427	16.518697	5.506939	-3.609946	30.504458	-12.231970	-11.986076	47.676467	10.277934	20.730137	15.370839	39.459641	7.637093	23.757132	26.907479	20.021790	-4.888850	55.135562	53.223166	16.408193	-9.694972	66.043335	54.240929
-0.265000	-0.883807	-4.225655	94.239928	0.099098	-0.231174	0.116733	95.545569	17.115579	6.619242	-3.967483	31.583729	-11.957218	-11.732321	47.636792	10.470715	21.019896	15.640914	39.679821	7.722336	23.817859	27.470163	20.390644	-5.029904	55.351755	53.692095	16.509551	-9.846998	66.635608	54.804228
-0.255000	-0.883807	-4.225655	94.239928	0.105105	-0.232526	0.121889	96.991101	17.696773	7.812023	-4.223375	32.662125	-11.675567	-11.516978	47.515019	10.637636	21.339945	15.969684	39.808229	7.797554	23.928947	28.072188	20.654293	-5.136083	55.642302	54.097191	16.622756	-10.043437	67.190450	55.218312
-0.245000	-0.883807	-4.225655	94.239928	0.110896	-0.234092	0.126784	98.444502	18.252733	9.069140	-4.394239	33.708427	-11.392458	-11.332899	47.322853	10.780952	21.687595	16.351965	39.847146	7.863095	24.088404	28.707317	20.809757	-5.207832	55.999536	54.454967	16.793859	-10.282824	67.707703	55.453833
-0.235000	-0.883807	-4.225655	94.239928	0.116415	-0.235851	0.131363	99.860497	18.772269	10.368669	-4.500573	34.693903	-11.120109	-11.175968	47.073729	10.904540	22.069334	16.789136	39.803529	7.919079	24.300471	29.371982	20.878064	-5.255805	56.413270	54.780994	17.052972	-10.546705	68.198642	55.534912
-0.225000	-0.883807	-4.225655	94.239928	0.121638	-0.237788	0.135588	101.201881	19.248428	11.685712	-4.563462	35.599021	-10.871750	-11.043378	46.785933	11.012948	22.491416	17.282462	39.695589	7.965508	24.570589	30.059311	20.898999	-5.294601	56.877850	55.087685	17.407269	-10.807243	68.686246	55.527304
-0.215000	-0.883807	-4.225655	94.239928	0.126558	-0.239884	0.139445	102.445959	19.680102	12.995781	-4.601959	36.415391	-10.654557	-10.930374	46.484973	11.110380	22.949487	17.823064	39.555011	8.002839	24.900403	30.751059	20.918729	-5.335800	57.391188	55.383861	17.843724	-11.037709	69.192094	55.507135
-0.205000	-0.883807	-4.225655	94.239928	0.131171	-0.242107	0.142941	103.585491	20.070438	14.277408	-4.630122	37.145417	-10.466280	-10.829050	46.201416	11.200257	23.425829	18.389029	39.422075	8.032535	25.286820	31.417074	20.975206	-5.383919	57.950243	55.675488	18.337853	-11.221799	69.723456	55.528704
-0.195000	-0.883807	-4.225655	94.239928	0.135468	-0.244416	0.146098	104.625825	20.424571	15.513780	-4.653866	37.801333	-10.297700	-10.730857	45.963532	11.285695	23.896872	18.954489	39.336363	8.057145	25.725160	32.024850	21.087505	-5.436921	58.549305	55.967111	18.860518	-11.357807	70.273889	55.610322
-0.185000	-0.883807	-4.225655	94.239928	0.139436	-0.246780	0.148941	105.579676	20.747789	16.693831	-4.669964	38.402470	-10.138586	-10.630951	45.789362	11.370590	24.345695	19.504713	39.329447	8.079719	26.212556	32.552395	21.253861	-5.490135	59.183444	56.263265	19.379903	-11.456010	70.837924	55.742711
-0.175000	-0.883807	-4.225655	94.239928	0.143064	-0.249186	0.151488	106.460283	21.043863	17.812836	-4.669647	38.968880	-9.982675	-10.530750	45.684620	11.460450	24.770944	20.045509	39.423919	8.102741	26.747685	32.995083	21.459664	-5.540570	59.853283	56.568292	19.863424	-11.531212	71.426547	55.907827
